<svg class="contact-icon" width="20" height="20" viewBox="0 0 24 24" fill="none" xmlns="http://www.w3.org/2000/svg" aria-hidden="true">
    <path fill="#111827" d="M12 .5C5.73.5.75 5.48.75 11.75c0 4.95 3.2 9.15 7.64 10.63.56.1.76-.24.76-.54 0-.26-.01-1.12-.02-2.03-3.11.68-3.77-1.5-3.77-1.5-.51-1.3-1.25-1.65-1.25-1.65-1.02-.7.08-.69.08-.69 1.13.08 1.73 1.16 1.73 1.16 1.01 1.73 2.65 1.23 3.3.94.1-.74.39-1.23.71-1.51-2.48-.28-5.09-1.24-5.09-5.52 0-1.22.44-2.22 1.16-3-.12-.28-.5-1.41.11-2.94 0 0 .95-.3 3.1 1.14a10.8 10.8 0 012.82-.38c.96 0 1.93.13 2.82.38 2.15-1.44 3.1-1.14 3.1-1.14.61 1.53.23 2.66.11 2.94.72.78 1.16 1.78 1.16 3 0 4.29-2.62 5.23-5.11 5.5.4.35.76 1.05.76 2.12 0 1.53-.01 2.76-.01 3.14 0 .3.2.65.77.54A11.25 11.25 0 0023.25 11.75C23.25 5.48 18.27.5 12 .5z"/>
</svg>