<svg width="50" height="50" viewBox="0 0 176 100" fill="none" xmlns="http://www.w3.org/2000/svg">
<g clip-path="url(#clip0_94_480)">
<path d="M126.66 56.3425C125.864 56.3425 125.101 56.0012 124.539 55.3937C123.976 54.7862 123.66 53.9623 123.66 53.1032C123.66 49.3803 122.29 45.81 119.852 43.1775C117.414 40.5451 114.108 39.0662 110.66 39.0662H89.7799C89.0648 38.9561 88.4105 38.5712 87.9371 37.9821C87.4638 37.393 87.2031 36.6392 87.2031 35.8592C87.2031 35.0793 87.4638 34.3255 87.9371 33.7364C88.4105 33.1473 89.0648 32.7623 89.7799 32.6523H110.78C115.794 32.6609 120.601 34.8164 124.146 38.646C127.691 42.4757 129.685 47.667 129.69 53.0816C129.693 53.5115 129.616 53.9378 129.465 54.3354C129.313 54.7331 129.09 55.0942 128.808 55.3977C128.526 55.7012 128.191 55.9411 127.822 56.1033C127.453 56.2655 127.058 56.3468 126.66 56.3425Z" fill="#C53427"/>
<path d="M126.659 77.1389C133.303 77.1389 138.689 71.3233 138.689 64.1493C138.689 56.9753 133.303 51.1596 126.659 51.1596C120.015 51.1596 114.629 56.9753 114.629 64.1493C114.629 71.3233 120.015 77.1389 126.659 77.1389Z" fill="#DD372A"/>
<path d="M85.859 77.1497H64.859C59.8454 77.144 55.0387 74.9909 51.4935 71.163C47.9483 67.335 45.9544 62.1448 45.9491 56.7312C45.8832 56.2696 45.9105 55.798 46.0293 55.3488C46.148 54.8996 46.3553 54.4835 46.6369 54.129C46.9185 53.7744 47.2679 53.4898 47.6609 53.2947C48.054 53.0996 48.4815 52.9985 48.9141 52.9985C49.3467 52.9985 49.7741 53.0996 50.1672 53.2947C50.5602 53.4898 50.9096 53.7744 51.1912 54.129C51.4728 54.4835 51.6801 54.8996 51.7989 55.3488C51.9176 55.798 51.9449 56.2696 51.8791 56.7312C51.8791 60.4541 53.2487 64.0245 55.6867 66.6569C58.1246 69.2894 61.4312 70.7682 64.8791 70.7682H85.8791C86.5942 70.8783 87.2485 71.2632 87.7219 71.8523C88.1952 72.4415 88.4558 73.1952 88.4558 73.9752C88.4558 74.7551 88.1952 75.5089 87.7219 76.098C87.2485 76.6872 86.5942 77.0721 85.8791 77.1821L85.859 77.1497Z" fill="#00B37B"/>
<path d="M48.9402 58.7396C55.5841 58.7396 60.9702 52.9239 60.9702 45.7499C60.9702 38.576 55.5841 32.7603 48.9402 32.7603C42.2962 32.7603 36.9102 38.576 36.9102 45.7499C36.9102 52.9239 42.2962 58.7396 48.9402 58.7396Z" fill="#4DBC8B"/>
<path d="M86.4805 96.9203C86.4805 96.0612 86.7965 95.2373 87.3591 94.6298C87.9217 94.0223 88.6848 93.681 89.4805 93.681C92.9283 93.681 96.2349 92.2021 98.6729 89.5697C101.111 86.9372 102.48 83.3668 102.48 79.644V56.9688C102.59 56.2042 102.949 55.507 103.492 55.0033C104.036 54.4997 104.729 54.2228 105.445 54.2228C106.162 54.2228 106.855 54.4997 107.399 55.0033C107.942 55.507 108.301 56.2042 108.41 56.9688V79.644C108.405 85.0575 106.411 90.2478 102.866 94.0757C99.3208 97.9037 94.5141 100.057 89.5005 100.062C88.7167 100.068 87.9619 99.7431 87.3975 99.1559C86.8331 98.5686 86.504 97.7662 86.4805 96.9203Z" fill="#F58123"/>
<path d="M79.28 109.899C85.924 109.899 91.31 104.084 91.31 96.9095C91.31 89.7356 85.924 83.9199 79.28 83.9199C72.636 83.9199 67.25 89.7356 67.25 96.9095C67.25 104.084 72.636 109.899 79.28 109.899Z" fill="#F3AF23"/>
<path d="M67.2487 52.8549V30.1796C67.254 24.7661 69.248 19.5759 72.7932 15.7479C76.3384 11.9199 81.1451 9.76687 86.1588 9.76115C86.5863 9.69001 87.023 9.71955 87.439 9.84775C87.855 9.97595 88.2404 10.1998 88.5688 10.5039C88.8972 10.808 89.1607 11.1852 89.3414 11.6096C89.5221 12.034 89.6157 12.4956 89.6157 12.9627C89.6157 13.4298 89.5221 13.8914 89.3414 14.3158C89.1607 14.7402 88.8972 15.1174 88.5688 15.4215C88.2404 15.7256 87.855 15.9494 87.439 16.0776C87.023 16.2058 86.5863 16.2353 86.1588 16.1642C82.7109 16.1642 79.4043 17.6431 76.9664 20.2755C74.5284 22.908 73.1588 26.4784 73.1588 30.2012V52.8764C73.0569 53.6486 72.7004 54.3551 72.1548 54.8663C71.6092 55.3774 70.9111 55.6588 70.1888 55.6588C69.4664 55.6588 68.7684 55.3774 68.2227 54.8663C67.6771 54.3551 67.3206 53.6486 67.2188 52.8764L67.2487 52.8549Z" fill="#469FD8"/>
<path d="M96.3191 25.9793C102.963 25.9793 108.349 20.1636 108.349 12.9897C108.349 5.81567 102.963 0 96.3191 0C89.6751 0 84.2891 5.81567 84.2891 12.9897C84.2891 20.1636 89.6751 25.9793 96.3191 25.9793Z" fill="#59B6E7"/>
</g>
<defs>
<clipPath id="clip0_94_480">
<rect width="175.6" height="178.346" fill="white"/>
</clipPath>
</defs>
</svg>
